<?xml version="1.0" encoding="utf-8"?>
<!-- Generator: Adobe Illustrator 18.1.1, SVG Export Plug-In . SVG Version: 6.00 Build 0)  -->
<svg version="1.1" id="Layer_1" xmlns="http://www.w3.org/2000/svg" xmlns:xlink="http://www.w3.org/1999/xlink" x="0px" y="0px"
	 viewBox="0 0 792 783.9" enable-background="new 0 0 792 783.9" xml:space="preserve">
<g>
	<ellipse fill="#6E6F72" cx="405.6" cy="451.4" rx="314.2" ry="13.2"/>
	<path fill="#231F20" d="M113.3,420.8c0,0,2.4,13.2,9.2,13.6c6.7,0.4,7.9-2.6,7.9-2.6s10.4,29.9,46.4,28.1s43.4-29.9,43.4-29.9
		l27.5-0.6l293.9-2.4c0,0,10.4,33.8,47,33.1c36.7-0.7,45.8-20.2,48.9-35.5l24.4-3.7l56.8-3.1c0,0,2.4-1.2,0-15.3s-8.6-3.1-9.8-4.9
		c-1.2-1.8-54.4-57.4-55-61.1c-0.6-3.7-23.7-30.9-23.7-30.9s-23.9-5.9-30.6-4.3c-6.7,1.6-78.8,7.1-81.3,6.5
		c-2.4-0.6-171.1,6.3-171.1,6.3h-15.7l-25.4,4.7c0,0,52.1-29.9,59.5-31.2c7.3-1.2,15.9-6.7,15.9-6.7s4.9-5.5,0.6-8.6
		c-4.3-3.1-18.9-7.3-18.9-7.3l-119.7,69.6c0,0-133.2,30.5-133.2,31.8S103.5,415.3,113.3,420.8z"/>
	<path fill="#F7E3CE" stroke="#E0D0AF" stroke-width="2" stroke-miterlimit="10" d="M438.6,321.6c0,0,2.7-6.4,4.9-8.9
		c2.1-2.4,3.4-4,3.4-4s-2.1-2.4-2.7-5.8c-0.6-3.4,0-15,0-15.9s2.7-4.6,4.9-4.6s8.6,2.4,10.4,3.1c1.8,0.6,9.5,5.8,11.3,10.1
		c1.8,4.3,4.6,6.1,4.6,9.5s0,15,0,16.5c0,1.5-1.5,14.4-1.5,14.4l-16.8,9.8c0,0-18-6.1-18.3-8.6S438.6,321.6,438.6,321.6z"/>
	<path fill="#F7E3CE" stroke="#E0D0AF" stroke-width="2" stroke-miterlimit="10" d="M531.5,320.7c0-1.5,1.8-5.2,4.6-8.4
		c2.7-3.2,2.7-3.2,2.7-3.2s-3.7-3.7-3.7-8.2c0-4.6,1.8-14.1,1.8-14.1s1.8-4.3,5.8-4.3c4,0,4.6,2.4,4.6,2.4s4.9-1.5,6.7-0.9
		s4.6,2.1,5.8,7.6c1.2,5.5,0,16.8,0,16.8s11.3-1.2,13.1,1.2c1.8,2.4,2.1,3.4,3.4,7.6c1.2,4.3,2.7,6.7,0,11
		c-2.7,4.3-8.9,12.8-14.4,13.7s-16.2-0.9-18,0s-4.9,5.8-9.8-5.5c-4.9-11.3-5.2-9.5-4.9-11.3S531.5,320.7,531.5,320.7z"/>
	<path fill="#B2ADAE" d="M82.1,401.1v-38.7c0,0,0-4.5,10.2-11.8s37.1-20,44-22c6.9-2,63.9-16.7,103.9-16.3l35.4-2.4
		c0,0,74.1-41.1,85.5-44.4c0,0,9.8,2.9,12.2,5.7c2.4,2.9,3.7,6.1,3.7,6.1s-45.2,21.2-49.7,23.2c-4.5,2-40.7,26.1-40.7,26.1l202-8.6
		l119.3-4.1c0,0,23.6-3.7,15.1-8.6c0,0,61.5,2.4,68.4,3.7s13.8-1.2,15.9,3.7c2,4.9,3.3,3.3,3.7,10.6c0.4,7.3,0.4,7.3,0.4,7.3
		s2.4,4.5,2.9,7.3s1.6,11.8,0,12.6c-1.6,0.8,3.3,4.5,5.3,7.7s5.7,11.4,4.9,20.4c-0.8,9-1.6,22.4-1.6,22.4l-9.4,14.3
		c0,0-2.9,2-13,4.1s-52.1,8.6-52.1,8.6s4.1-64.4-55.8-66.8c-59.9-2.4-58.2,71.7-58.2,71.7s-99.4-1.2-152.3,0
		c-52.9,1.2-148.7,1.6-148.7,1.6s5.7-73.3-57.4-76.6c-63.1-3.3-55.4,73.3-55.4,73.3s-1.2,3.3-20-2.4s-19.5-2.4-20.4-14.7l4.1-6.1
		C84.2,408,83.8,404.4,82.1,401.1z"/>
	<circle fill="#B2ADAE" cx="174.1" cy="413.8" r="38.2"/>
	<circle fill="#B2ADAE" cx="589.5" cy="413.8" r="38.2"/>
	<path fill="#8F282E" d="M698.3,325.8h-13.7c0,0-3.7,3.1-6.4,5.5c-2.7,2.4-4,5.2,0,8.2c4,3.1,14.1,11,14.1,11s6.7,1.8,11.6,1.5
		c4.9-0.3,10.4-0.6,10.7-3.7s1.2-9.5,0-11.3s-3.4-2.1-4.3-4.9s-0.9-5.8-3.4-6.4C704.4,325.2,698.3,325.8,698.3,325.8z"/>
	<path fill="#818285" d="M724.2,387.9c0,0-62.3,10.4-67.8,11c-5.5,0.6-5.5,0.6-5.5,0.6s-12.8-47.7-61.7-44
		c-48.9,3.7-59.9,50.1-59.9,50.1s-51.3,3.7-70.3,5.5c-18.9,1.8-199.8,3.1-205.3,2.7c-5.5-0.3-14.1-1.5-16.5-8.2s-6.1-47.6-58-53.4
		S117,398.2,117,398.2s-1.8,14.8-6.7,15.6c-4.9,0.9-9.8,0-9.8,0l-3.7,4.5c0,0-7.3-1.8-9.2-4.6c-1.8-2.7-3.7-5.8-3.7-5.8
		s-6.1,1.2-5.5,5.8c0.6,4.6,3.1,10.1,9.8,11.9s31.8,7.3,31.8,7.3s-10.4-72.1,54.1-75.1c0,0,61.4,1.2,59.6,75.1h301.2
		c0,0-6.1-66,57.1-72.1c0,0,57.1,0.6,56.5,66c0,0,58.6-7.9,62.9-10.4C715.7,414.1,724.8,403.1,724.2,387.9z"/>
	<path fill="#818285" d="M213.8,351.7c0,0,433.1-29.8,464.3-20.3l-112.7,4.3c0,0-22.3,3.8-28.1,5c-5.8,1.1-31.8,1.8-44.3,2.7
		C480.5,344.2,219.3,353.4,213.8,351.7z"/>
	<path fill="#818285" d="M376.2,276.5c0,0-78.2,42.4-82.7,42.8c-4.5,0.4-58.6,4.1-61.5,4.5c-2.9,0.4-90,5.5-118.9,17
		c0,0,49.7-21.9,161.7-23.1c0,0,11-1.2,21.6-6.9c10.6-5.7,41.5-26.1,52.5-30.5c11-4.5,20.4-9.4,22.8-9.8
		C374.2,269.9,373.4,273.2,376.2,276.5z"/>
	<path fill="#231F20" d="M84.6,401.9L84,408c0,0,1.8,9.4,12.8,10.4c0,0,2.9-6.1,2-8.2c-0.8-2.1-1.2-2.5-2-5.8s-4.1-6.5-5.3-6.9
		c-1.2-0.4-0.8,0.4-2.4,2S84.6,401.9,84.6,401.9z"/>
	<path fill="#231F20" d="M267.9,317.6c0,0-16.3-3.7-11.4-5.3c4.9-1.6,17.9-2.4,17.9-2.4S264.2,317.5,267.9,317.6z"/>
	<path fill="#231F20" d="M91.5,359.1c-0.4,1.2,0,9.4,0,9.4l2.1,7.1c0,0,13.4-3.1,23.6-9.2s16.7-10.2,16.7-10.2s-15.5-5.1-18.7-4.4
		C111.9,352.6,91.5,359.1,91.5,359.1z"/>
	<path fill="#231F20" d="M253.2,397.3c0,0-7.3-15.8-8.6-18.2c-1.2-2.4-1.6-2.9,2.4-3.5c4.1-0.6,6.1,0,6.1,0s3.7-2.6,4.1-3.9
		c0.4-1.2,0.4-1.2,0.4-1.2h-13.9c0,0-8.9,1.6-6.5,6.9s6.9,17.7,10,19.9C250.4,399.5,254.8,400.8,253.2,397.3z"/>
	<path fill="none" stroke="#231F20" stroke-miterlimit="10" d="M375.4,275.6c0,0-61.1,26.9-83.1,45.2l-17.5,10.6
		c0,0-6.9,8.6-8.1,12.2c-1.2,3.7-4.9,17.9-3.7,30.1s2.4,35,3.7,39.1c1.2,4.1,2,7.7,2,7.7"/>
	<path fill="none" stroke="#231F20" stroke-miterlimit="10" d="M272.8,317.2c0,0-13,13.4-36.7,15.5c-23.6,2-99.8,6.9-125,19.1"/>
	<path fill="none" stroke="#231F20" stroke-miterlimit="10" d="M97.2,348.1c0,0,2.4,4.1,4.9,6.5"/>
	<path fill="none" stroke="#231F20" stroke-miterlimit="10" d="M131.8,354.7c0,0,16.7,2.4,21.6,6.5c4.9,4.1,4.9,4.1,4.9,4.1"/>
	<path fill="none" stroke="#231F20" stroke-miterlimit="10" d="M464.6,319.2c0,0,9.4,7.7,9.8,15.3c0.4,7.5,2.4,17.3-3.3,32
		c-5.7,14.7-22,50.9-22,50.9"/>
	<path fill="none" stroke="#231F20" stroke-miterlimit="10" d="M230,420.6c1.2-0.8,269.6-1.2,308.3-7.3"/>
	<path fill="none" stroke="#231F20" stroke-miterlimit="10" d="M623.8,372.2c0,0,55.8-14.7,59.5-15.1c3.7-0.4,9.4-9,9.4-9"/>
	<path fill="none" stroke="#231F20" stroke-miterlimit="10" d="M682.1,327.4h-44.8c0,0-7.7-3.3-13.4-5.7c-5.7-2.4-17.1-7.7-17.1-7.7
		h-2"/>
	<path fill="none" stroke="#231F20" stroke-miterlimit="10" d="M694.3,420.6c0,0,13-15.1,15.9-17.5c2.9-2.4,4.9-2.4,7.7-1.6
		c2.9,0.8-0.4,2,2.9,0.8"/>
	<path fill="none" stroke="#231F20" stroke-miterlimit="10" d="M434,339.6c0,0-16.8-0.4-4.3-5.1h4.3"/>
	<path fill="none" stroke="#231F20" stroke-miterlimit="10" d="M450.5,339.6c0,0,11.8-0.3,11.5-3.7c-0.2-3.4-11.5-3.4-11.5-3.4"/>
	<path fill="#231F20" d="M565.6,391.3c0,0,11.4,12.2,13.8,11.4c2.4-0.8-0.6-7.1-3.5-11.4c-2.9-4.3-4.1-5.7-4.1-5.7
		S566.2,389.9,565.6,391.3z"/>
	<path fill="#231F20" d="M585.8,380.6c0,0,1.6,16.6,4,17.5c2.4,0.8,3.9-6,4.2-11.1c0.4-5.1,0.3-7,0.3-7S587.2,379.8,585.8,380.6z"/>
	<path fill="#231F20" d="M604.3,383.9c0,0-8.2,14.5-6.7,16.6c1.5,2.1,6.6-2.7,9.8-6.7c3.2-4,4.2-5.6,4.2-5.6
		S605.8,384.1,604.3,383.9z"/>
	<path fill="#231F20" d="M620.6,400c0,0-15.4,6.5-15.5,9.1c-0.1,2.6,6.9,1.9,11.9,0.7c5-1.2,6.8-1.9,6.8-1.9S621.7,401.1,620.6,400z
		"/>
	<path fill="#231F20" d="M622.4,415.8c0,0-16.6-2.2-17.9,0c-1.4,2.2,5,5.1,9.9,6.6c4.9,1.5,6.8,1.8,6.8,1.8S622.9,417.3,622.4,415.8
		z"/>
	<path fill="#231F20" d="M613.6,437c0,0-11.8-11.9-14.2-11c-2.4,0.9,0.8,7.1,3.8,11.3c3,4.2,4.2,5.6,4.2,5.6S613,438.4,613.6,437z"
		/>
	<path fill="#231F20" d="M597.2,446.1c0,0-2.9-16.5-5.3-17.1c-2.5-0.7-3.4,6.3-3.3,11.4s0.3,7,0.3,7S595.9,446.9,597.2,446.1z"/>
	<path fill="#231F20" d="M574.4,444c0,0,7.8-14.8,6.2-16.8c-1.6-2-6.5,2.9-9.6,7c-3.1,4.1-4,5.7-4,5.7S572.9,443.9,574.4,444z"/>
	<path fill="#231F20" d="M560.4,430.2c0,0,15-7.4,14.9-10s-7-1.4-11.9,0.1s-6.6,2.3-6.6,2.3S559.2,429.2,560.4,430.2z"/>
	<path fill="#231F20" d="M555.9,407.8c0,0,16.4,3.2,17.9,1.1c1.5-2.1-4.7-5.4-9.5-7.2c-4.8-1.8-6.6-2.2-6.6-2.2
		S555.6,406.3,555.9,407.8z"/>
	<path fill="#231F20" d="M151.4,391.3c0,0,11.4,12.2,13.8,11.4c2.4-0.8-0.6-7.1-3.5-11.4c-2.9-4.3-4.1-5.7-4.1-5.7
		S152.1,389.9,151.4,391.3z"/>
	<path fill="#231F20" d="M171.7,380.6c0,0,1.6,16.6,4,17.5c2.4,0.8,3.9-6,4.2-11.1c0.4-5.1,0.3-7,0.3-7S173,379.8,171.7,380.6z"/>
	<path fill="#231F20" d="M190.1,383.9c0,0-8.2,14.5-6.7,16.6c1.5,2.1,6.6-2.7,9.8-6.7c3.2-4,4.2-5.6,4.2-5.6
		S191.7,384.1,190.1,383.9z"/>
	<path fill="#231F20" d="M206.4,400c0,0-15.4,6.5-15.5,9.1c-0.1,2.6,6.9,1.9,11.9,0.7c5-1.2,6.8-1.9,6.8-1.9S207.5,401.1,206.4,400z
		"/>
	<path fill="#231F20" d="M208.3,415.8c0,0-16.6-2.2-17.9,0c-1.4,2.2,5,5.1,9.9,6.6c4.9,1.5,6.8,1.8,6.8,1.8S208.7,417.3,208.3,415.8
		z"/>
	<path fill="#231F20" d="M199.5,437c0,0-11.8-11.9-14.2-11c-2.4,0.9,0.8,7.1,3.8,11.3c3,4.2,4.2,5.6,4.2,5.6S198.9,438.4,199.5,437z
		"/>
	<path fill="#231F20" d="M183.1,446.1c0,0-2.9-16.5-5.3-17.1c-2.5-0.7-3.4,6.3-3.3,11.4s0.3,7,0.3,7S181.8,446.9,183.1,446.1z"/>
	<path fill="#231F20" d="M160.3,444c0,0,7.8-14.8,6.2-16.8c-1.6-2-6.5,2.9-9.6,7c-3.1,4.1-4,5.7-4,5.7S158.7,443.9,160.3,444z"/>
	<path fill="#231F20" d="M146.3,430.2c0,0,15-7.4,14.9-10s-7-1.4-11.9,0.1s-6.6,2.3-6.6,2.3S145.1,429.2,146.3,430.2z"/>
	<path fill="#231F20" d="M141.8,407.8c0,0,16.4,3.2,17.9,1.1s-4.7-5.4-9.5-7.2c-4.8-1.8-6.6-2.2-6.6-2.2S141.4,406.3,141.8,407.8z"
		/>
	<path fill="#B2ADAE" d="M306.2,320.5c0,0,1.6-11.8,7.3-15.9c5.7-4.1,11-4.5,13.4,0s6.1,11.6,4.1,15.9
		C329,324.8,315.1,332.3,306.2,320.5z"/>
	<path fill="#231F20" d="M302.1,320c0,0,2,0.8,10.6,0c8.6-0.8,18.9-2.5,18.9-2.5s0.4,7.8-12.7,9.2l-32.3,0L302.1,320z"/>
</g>
</svg>
