<?xml version="1.0" encoding="utf-8"?>
<!-- Generator: Adobe Illustrator 18.1.1, SVG Export Plug-In . SVG Version: 6.00 Build 0)  -->
<svg version="1.1" id="Layer_1" xmlns="http://www.w3.org/2000/svg" xmlns:xlink="http://www.w3.org/1999/xlink" x="0px" y="0px"
	 viewBox="0 0 792 858.9" enable-background="new 0 0 792 858.9" xml:space="preserve">
<circle fill="#FFFFFF" stroke="#046938" stroke-width="40" stroke-miterlimit="10" cx="408.3" cy="431.2" r="213"/>
<line fill="none" stroke="#231F20" stroke-width="10" stroke-miterlimit="10" x1="406.3" y1="256.9" x2="406.3" y2="314.2"/>
<line fill="none" stroke="#231F20" stroke-width="10" stroke-miterlimit="10" x1="406.3" y1="544.9" x2="406.3" y2="602.2"/>
<line fill="none" stroke="#231F20" stroke-width="10" stroke-miterlimit="10" x1="579" y1="429.5" x2="521.7" y2="429.5"/>
<line fill="none" stroke="#231F20" stroke-width="10" stroke-miterlimit="10" x1="291" y1="429.5" x2="233.7" y2="429.5"/>
<line fill="none" stroke="#231F20" stroke-width="10" stroke-miterlimit="10" x1="558.1" y1="347.1" x2="507.7" y2="374.5"/>
<line fill="none" stroke="#231F20" stroke-width="10" stroke-miterlimit="10" x1="305" y1="484.6" x2="254.6" y2="512"/>
<line fill="none" stroke="#231F20" stroke-width="10" stroke-miterlimit="10" x1="488.8" y1="581.3" x2="461.4" y2="530.9"/>
<line fill="none" stroke="#231F20" stroke-width="10" stroke-miterlimit="10" x1="351.3" y1="328.2" x2="323.9" y2="277.8"/>
<line fill="none" stroke="#231F20" stroke-width="10" stroke-miterlimit="10" x1="492.4" y1="279.8" x2="463.8" y2="329.6"/>
<line fill="none" stroke="#231F20" stroke-width="10" stroke-miterlimit="10" x1="348.9" y1="529.5" x2="320.3" y2="579.2"/>
<line fill="none" stroke="#231F20" stroke-width="10" stroke-miterlimit="10" x1="556" y1="515.6" x2="506.3" y2="487"/>
<line fill="none" stroke="#231F20" stroke-width="10" stroke-miterlimit="10" x1="306.3" y1="372.1" x2="256.6" y2="343.5"/>
<polygon fill="#B2ADAE" points="418.9,336.5 449.9,345.7 443,312.6 "/>
<line fill="none" stroke="#B2ADAE" stroke-width="7" stroke-miterlimit="10" x1="436.1" y1="335.3" x2="405.9" y2="436.4"/>
<polygon fill="#B2ADAE" points="540.5,455.6 531.2,486.6 564.3,479.7 "/>
<line fill="none" stroke="#B2ADAE" stroke-width="7" stroke-miterlimit="10" x1="544.6" y1="474.8" x2="405.8" y2="433.2"/>
</svg>
