<?xml version="1.0" encoding="utf-8"?>
<!-- Generator: Adobe Illustrator 18.1.1, SVG Export Plug-In . SVG Version: 6.00 Build 0)  -->
<svg version="1.1" id="Layer_1" xmlns="http://www.w3.org/2000/svg" xmlns:xlink="http://www.w3.org/1999/xlink" x="0px" y="0px"
	 viewBox="0 0 792 962.8" enable-background="new 0 0 792 962.8" xml:space="preserve">
<polygon fill="#B1ADAD" points="444.7,587.7 67,433.7 493,406.4 704.5,517.7 "/>
<polygon fill="#F5E1CE" points="704.5,517.7 444.7,587.7 444.7,329.6 704.5,279.6 "/>
<polygon fill="#8E282E" points="243,457.6 444.7,587.7 444.7,329.6 243,229.5 "/>
<g>
	<line fill="none" stroke="#6C232A" stroke-width="4" stroke-miterlimit="10" x1="444.7" y1="580.1" x2="243" y2="451.8"/>
	<line fill="none" stroke="#6C232A" stroke-width="4" stroke-miterlimit="10" x1="444.6" y1="564.7" x2="243" y2="437.9"/>
	<line fill="none" stroke="#6C232A" stroke-width="4" stroke-miterlimit="10" x1="444.5" y1="549.3" x2="243" y2="424"/>
	<line fill="none" stroke="#6C232A" stroke-width="4" stroke-miterlimit="10" x1="444.5" y1="534" x2="243" y2="410.1"/>
	<line fill="none" stroke="#6C232A" stroke-width="4" stroke-miterlimit="10" x1="444.4" y1="518.6" x2="243" y2="396.2"/>
	<line fill="none" stroke="#6C232A" stroke-width="4" stroke-miterlimit="10" x1="444.3" y1="503.2" x2="243" y2="382.3"/>
	<line fill="none" stroke="#6C232A" stroke-width="4" stroke-miterlimit="10" x1="444.2" y1="487.8" x2="243" y2="368.4"/>
	<line fill="none" stroke="#6C232A" stroke-width="4" stroke-miterlimit="10" x1="444.2" y1="472.4" x2="243" y2="354.5"/>
	<line fill="none" stroke="#6C232A" stroke-width="4" stroke-miterlimit="10" x1="444.1" y1="457.1" x2="243" y2="340.6"/>
	<line fill="none" stroke="#6C232A" stroke-width="4" stroke-miterlimit="10" x1="444" y1="441.7" x2="243" y2="326.8"/>
	<line fill="none" stroke="#6C232A" stroke-width="4" stroke-miterlimit="10" x1="443.9" y1="426.3" x2="243" y2="312.9"/>
	<line fill="none" stroke="#6C232A" stroke-width="4" stroke-miterlimit="10" x1="443.8" y1="410.9" x2="243" y2="299"/>
	<line fill="none" stroke="#6C232A" stroke-width="4" stroke-miterlimit="10" x1="443.8" y1="395.5" x2="243" y2="285.1"/>
	<line fill="none" stroke="#6C232A" stroke-width="4" stroke-miterlimit="10" x1="443.7" y1="380.2" x2="243" y2="271.2"/>
	<line fill="none" stroke="#6C232A" stroke-width="4" stroke-miterlimit="10" x1="443.6" y1="364.8" x2="243" y2="257.3"/>
	<line fill="none" stroke="#6C232A" stroke-width="4" stroke-miterlimit="10" x1="443.5" y1="349.4" x2="243" y2="243.4"/>
	<line fill="none" stroke="#6C232A" stroke-width="4" stroke-miterlimit="10" x1="443.4" y1="334" x2="243" y2="229.5"/>
</g>
<polygon fill="#F5E1CE" points="425.1,336.8 575.5,214 725.9,278.7 "/>
<polygon fill="#FFFFFF" stroke="#231F20" stroke-miterlimit="10" points="225.1,228.5 375.5,115.7 525.9,180.4 "/>
<polygon fill="#221F1E" points="375.5,115.7 575.5,214 425.1,336.8 225.1,228.5 "/>
<polygon fill="#221F1E" points="525.9,180.4 725.9,278.7 575.5,214 375.5,115.7 "/>
<g>
	<line fill="none" stroke="#EBBE97" stroke-width="4" stroke-miterlimit="10" x1="444.7" y1="580.1" x2="704.5" y2="511.4"/>
	<line fill="none" stroke="#EBBE97" stroke-width="4" stroke-miterlimit="10" x1="444.6" y1="564.7" x2="704.5" y2="497.3"/>
	<line fill="none" stroke="#EBBE97" stroke-width="4" stroke-miterlimit="10" x1="444.5" y1="549.3" x2="704.5" y2="483.1"/>
	<line fill="none" stroke="#EBBE97" stroke-width="4" stroke-miterlimit="10" x1="444.5" y1="534" x2="704.5" y2="468.9"/>
	<line fill="none" stroke="#EBBE97" stroke-width="4" stroke-miterlimit="10" x1="444.4" y1="518.6" x2="704.5" y2="454.7"/>
	<line fill="none" stroke="#EBBE97" stroke-width="4" stroke-miterlimit="10" x1="444.3" y1="503.2" x2="704.5" y2="440.6"/>
	<line fill="none" stroke="#EBBE97" stroke-width="4" stroke-miterlimit="10" x1="444.2" y1="487.8" x2="704.5" y2="426.4"/>
	<line fill="none" stroke="#EBBE97" stroke-width="4" stroke-miterlimit="10" x1="444.2" y1="472.4" x2="704.5" y2="412.2"/>
	<line fill="none" stroke="#EBBE97" stroke-width="4" stroke-miterlimit="10" x1="444.1" y1="457.1" x2="704.5" y2="398.1"/>
	<line fill="none" stroke="#EBBE97" stroke-width="4" stroke-miterlimit="10" x1="444" y1="441.7" x2="704.5" y2="383.9"/>
	<line fill="none" stroke="#EBBE97" stroke-width="4" stroke-miterlimit="10" x1="443.9" y1="426.3" x2="704.5" y2="369.7"/>
	<line fill="none" stroke="#EBBE97" stroke-width="4" stroke-miterlimit="10" x1="443.8" y1="410.9" x2="704.5" y2="355.6"/>
	<line fill="none" stroke="#EBBE97" stroke-width="4" stroke-miterlimit="10" x1="443.8" y1="395.5" x2="704.5" y2="341.4"/>
	<line fill="none" stroke="#EBBE97" stroke-width="4" stroke-miterlimit="10" x1="443.7" y1="380.2" x2="704.5" y2="327.2"/>
	<line fill="none" stroke="#EBBE97" stroke-width="4" stroke-miterlimit="10" x1="443.6" y1="364.8" x2="704.5" y2="313"/>
	<line fill="none" stroke="#EBBE97" stroke-width="4" stroke-miterlimit="10" x1="443.5" y1="349.4" x2="704.5" y2="298.9"/>
	<line fill="none" stroke="#EBBE97" stroke-width="4" stroke-miterlimit="10" x1="443.4" y1="334" x2="704.5" y2="284.7"/>
</g>
<g>
	<line fill="none" stroke="#EBBE97" stroke-width="4" stroke-miterlimit="10" x1="448" y1="321.1" x2="700.3" y2="272.8"/>
	<line fill="none" stroke="#EBBE97" stroke-width="4" stroke-miterlimit="10" x1="471" y1="303.2" x2="679.5" y2="263.5"/>
	<line fill="none" stroke="#EBBE97" stroke-width="4" stroke-miterlimit="10" x1="494" y1="285.3" x2="658.6" y2="254.1"/>
	<line fill="none" stroke="#EBBE97" stroke-width="4" stroke-miterlimit="10" x1="517.1" y1="267.4" x2="637.7" y2="244.8"/>
	<line fill="none" stroke="#EBBE97" stroke-width="4" stroke-miterlimit="10" x1="540.1" y1="249.5" x2="616.9" y2="235.5"/>
	<line fill="none" stroke="#EBBE97" stroke-width="4" stroke-miterlimit="10" x1="563.1" y1="231.6" x2="596" y2="226.2"/>
</g>
<polygon fill="#8E282E" points="680.6,524.2 616.9,541.3 616.9,424.3 680.6,409.8 "/>
<polygon fill="#221F1E" points="602.5,488.3 462.2,524 462.2,457.5 602.5,427.1 "/>
<g>
	<line fill="none" stroke="#010101" stroke-width="4" stroke-miterlimit="10" x1="238.1" y1="218.7" x2="439.3" y2="325.2"/>
	<line fill="none" stroke="#010101" stroke-width="4" stroke-miterlimit="10" x1="254.3" y1="206.5" x2="455.2" y2="312"/>
	<line fill="none" stroke="#010101" stroke-width="4" stroke-miterlimit="10" x1="270.5" y1="194.4" x2="471.2" y2="298.9"/>
	<line fill="none" stroke="#010101" stroke-width="4" stroke-miterlimit="10" x1="286.7" y1="182.2" x2="487.2" y2="285.8"/>
	<line fill="none" stroke="#010101" stroke-width="4" stroke-miterlimit="10" x1="302.9" y1="170.1" x2="503.1" y2="272.6"/>
	<line fill="none" stroke="#010101" stroke-width="4" stroke-miterlimit="10" x1="319.2" y1="157.9" x2="519.1" y2="259.5"/>
	<line fill="none" stroke="#010101" stroke-width="4" stroke-miterlimit="10" x1="335.4" y1="145.8" x2="535.1" y2="246.4"/>
	<line fill="none" stroke="#010101" stroke-width="4" stroke-miterlimit="10" x1="351.6" y1="133.6" x2="551" y2="233.2"/>
	<line fill="none" stroke="#010101" stroke-width="4" stroke-miterlimit="10" x1="367.8" y1="121.5" x2="567" y2="220.1"/>
</g>
<polygon fill="#B1ADAD" points="425.1,336.8 575.5,214 725.9,278.7 714.4,280.9 577,223.5 441.3,333.6 "/>
<polygon fill="#010101" points="351.7,422.5 407.7,454.8 407.7,357.4 351.7,326.2 "/>
<polygon fill="#010101" points="267.2,373.1 323.2,406.4 323.2,310 267.2,279.8 "/>
<ellipse fill="#F5E1CE" cx="627.1" cy="483.1" rx="2.9" ry="4.6"/>
<ellipse fill="#F5E1CE" cx="624.7" cy="483.6" rx="2.4" ry="1.6"/>
<path fill="#221F1E" d="M622.2,287.7c-0.9-21-19.2-32.9-39.7-29.3c-19.8,3.5-33.1,17-33.1,38.8c0,4.1-1.1,0.4,0,4.1L622.2,287.7z"/>
</svg>
