<?xml version="1.0" encoding="utf-8"?>
<!-- Generator: Adobe Illustrator 18.1.1, SVG Export Plug-In . SVG Version: 6.00 Build 0)  -->
<svg version="1.1" id="Layer_1" xmlns="http://www.w3.org/2000/svg" xmlns:xlink="http://www.w3.org/1999/xlink" x="0px" y="0px"
	 viewBox="0 0 792 962.8" enable-background="new 0 0 792 962.8" xml:space="preserve">
<polygon fill="#B1ADAD" points="444.7,588 67,433.9 493,406.6 704.5,517.9 "/>
<polygon fill="#F5E1CE" points="704.5,517.9 444.7,588 444.7,329.8 704.5,279.8 "/>
<polygon fill="#046938" points="243,457.9 444.7,588 444.7,329.8 243,229.8 "/>
<g>
	<line fill="none" stroke="#044F2A" stroke-width="4" stroke-miterlimit="10" x1="444.7" y1="580.3" x2="243" y2="452"/>
	<line fill="none" stroke="#044F2A" stroke-width="4" stroke-miterlimit="10" x1="444.6" y1="564.9" x2="243" y2="438.1"/>
	<line fill="none" stroke="#044F2A" stroke-width="4" stroke-miterlimit="10" x1="444.5" y1="549.6" x2="243" y2="424.2"/>
	<line fill="none" stroke="#044F2A" stroke-width="4" stroke-miterlimit="10" x1="444.5" y1="534.2" x2="243" y2="410.3"/>
	<line fill="none" stroke="#044F2A" stroke-width="4" stroke-miterlimit="10" x1="444.4" y1="518.8" x2="243" y2="396.4"/>
	<line fill="none" stroke="#044F2A" stroke-width="4" stroke-miterlimit="10" x1="444.3" y1="503.4" x2="243" y2="382.5"/>
	<line fill="none" stroke="#044F2A" stroke-width="4" stroke-miterlimit="10" x1="444.2" y1="488" x2="243" y2="368.7"/>
	<line fill="none" stroke="#044F2A" stroke-width="4" stroke-miterlimit="10" x1="444.2" y1="472.7" x2="243" y2="354.8"/>
	<line fill="none" stroke="#044F2A" stroke-width="4" stroke-miterlimit="10" x1="444.1" y1="457.3" x2="243" y2="340.9"/>
	<line fill="none" stroke="#044F2A" stroke-width="4" stroke-miterlimit="10" x1="444" y1="441.9" x2="243" y2="327"/>
	<line fill="none" stroke="#044F2A" stroke-width="4" stroke-miterlimit="10" x1="443.9" y1="426.5" x2="243" y2="313.1"/>
	<line fill="none" stroke="#044F2A" stroke-width="4" stroke-miterlimit="10" x1="443.8" y1="411.1" x2="243" y2="299.2"/>
	<line fill="none" stroke="#044F2A" stroke-width="4" stroke-miterlimit="10" x1="443.8" y1="395.8" x2="243" y2="285.3"/>
	<line fill="none" stroke="#044F2A" stroke-width="4" stroke-miterlimit="10" x1="443.7" y1="380.4" x2="243" y2="271.4"/>
	<line fill="none" stroke="#044F2A" stroke-width="4" stroke-miterlimit="10" x1="443.6" y1="365" x2="243" y2="257.5"/>
	<line fill="none" stroke="#044F2A" stroke-width="4" stroke-miterlimit="10" x1="443.5" y1="349.6" x2="243" y2="243.7"/>
	<line fill="none" stroke="#044F2A" stroke-width="4" stroke-miterlimit="10" x1="443.4" y1="334.2" x2="243" y2="229.8"/>
</g>
<polygon fill="#F5E1CE" points="425.1,337 575.5,214.2 725.9,278.9 "/>
<polygon fill="#FFFFFF" stroke="#231F20" stroke-miterlimit="10" points="225.1,228.7 375.5,115.9 525.9,180.7 "/>
<polygon fill="#221F1E" points="375.5,115.9 575.5,214.2 425.1,337 225.1,228.7 "/>
<polygon fill="#221F1E" points="525.9,180.7 725.9,278.9 575.5,214.2 375.5,115.9 "/>
<g>
	<line fill="none" stroke="#EBBE97" stroke-width="4" stroke-miterlimit="10" x1="444.7" y1="580.3" x2="704.5" y2="511.7"/>
	<line fill="none" stroke="#EBBE97" stroke-width="4" stroke-miterlimit="10" x1="444.6" y1="564.9" x2="704.5" y2="497.5"/>
	<line fill="none" stroke="#EBBE97" stroke-width="4" stroke-miterlimit="10" x1="444.5" y1="549.6" x2="704.5" y2="483.3"/>
	<line fill="none" stroke="#EBBE97" stroke-width="4" stroke-miterlimit="10" x1="444.5" y1="534.2" x2="704.5" y2="469.1"/>
	<line fill="none" stroke="#EBBE97" stroke-width="4" stroke-miterlimit="10" x1="444.4" y1="518.8" x2="704.5" y2="455"/>
	<line fill="none" stroke="#EBBE97" stroke-width="4" stroke-miterlimit="10" x1="444.3" y1="503.4" x2="704.5" y2="440.8"/>
	<line fill="none" stroke="#EBBE97" stroke-width="4" stroke-miterlimit="10" x1="444.2" y1="488" x2="704.5" y2="426.6"/>
	<line fill="none" stroke="#EBBE97" stroke-width="4" stroke-miterlimit="10" x1="444.2" y1="472.7" x2="704.5" y2="412.5"/>
	<line fill="none" stroke="#EBBE97" stroke-width="4" stroke-miterlimit="10" x1="444.1" y1="457.3" x2="704.5" y2="398.3"/>
	<line fill="none" stroke="#EBBE97" stroke-width="4" stroke-miterlimit="10" x1="444" y1="441.9" x2="704.5" y2="384.1"/>
	<line fill="none" stroke="#EBBE97" stroke-width="4" stroke-miterlimit="10" x1="443.9" y1="426.5" x2="704.5" y2="370"/>
	<line fill="none" stroke="#EBBE97" stroke-width="4" stroke-miterlimit="10" x1="443.8" y1="411.1" x2="704.5" y2="355.8"/>
	<line fill="none" stroke="#EBBE97" stroke-width="4" stroke-miterlimit="10" x1="443.8" y1="395.8" x2="704.5" y2="341.6"/>
	<line fill="none" stroke="#EBBE97" stroke-width="4" stroke-miterlimit="10" x1="443.7" y1="380.4" x2="704.5" y2="327.4"/>
	<line fill="none" stroke="#EBBE97" stroke-width="4" stroke-miterlimit="10" x1="443.6" y1="365" x2="704.5" y2="313.3"/>
	<line fill="none" stroke="#EBBE97" stroke-width="4" stroke-miterlimit="10" x1="443.5" y1="349.6" x2="704.5" y2="299.1"/>
	<line fill="none" stroke="#EBBE97" stroke-width="4" stroke-miterlimit="10" x1="443.4" y1="334.2" x2="704.5" y2="284.9"/>
</g>
<g>
	<line fill="none" stroke="#EBBE97" stroke-width="4" stroke-miterlimit="10" x1="448" y1="321.3" x2="700.3" y2="273"/>
	<line fill="none" stroke="#EBBE97" stroke-width="4" stroke-miterlimit="10" x1="471" y1="303.4" x2="679.5" y2="263.7"/>
	<line fill="none" stroke="#EBBE97" stroke-width="4" stroke-miterlimit="10" x1="494" y1="285.5" x2="658.6" y2="254.4"/>
	<line fill="none" stroke="#EBBE97" stroke-width="4" stroke-miterlimit="10" x1="517.1" y1="267.6" x2="637.7" y2="245.1"/>
	<line fill="none" stroke="#EBBE97" stroke-width="4" stroke-miterlimit="10" x1="540.1" y1="249.7" x2="616.9" y2="235.8"/>
	<line fill="none" stroke="#EBBE97" stroke-width="4" stroke-miterlimit="10" x1="563.1" y1="231.8" x2="596" y2="226.4"/>
</g>
<polygon fill="#046938" points="680.6,524.4 616.9,541.6 616.9,424.5 680.6,410 "/>
<polygon fill="#221F1E" points="602.5,488.5 462.2,524.2 462.2,457.7 602.5,427.3 "/>
<g>
	<line fill="none" stroke="#010101" stroke-width="4" stroke-miterlimit="10" x1="238.1" y1="218.9" x2="439.3" y2="325.4"/>
	<line fill="none" stroke="#010101" stroke-width="4" stroke-miterlimit="10" x1="254.3" y1="206.8" x2="455.2" y2="312.3"/>
	<line fill="none" stroke="#010101" stroke-width="4" stroke-miterlimit="10" x1="270.5" y1="194.6" x2="471.2" y2="299.1"/>
	<line fill="none" stroke="#010101" stroke-width="4" stroke-miterlimit="10" x1="286.7" y1="182.4" x2="487.2" y2="286"/>
	<line fill="none" stroke="#010101" stroke-width="4" stroke-miterlimit="10" x1="302.9" y1="170.3" x2="503.1" y2="272.9"/>
	<line fill="none" stroke="#010101" stroke-width="4" stroke-miterlimit="10" x1="319.2" y1="158.1" x2="519.1" y2="259.7"/>
	<line fill="none" stroke="#010101" stroke-width="4" stroke-miterlimit="10" x1="335.4" y1="146" x2="535.1" y2="246.6"/>
	<line fill="none" stroke="#010101" stroke-width="4" stroke-miterlimit="10" x1="351.6" y1="133.8" x2="551" y2="233.5"/>
	<line fill="none" stroke="#010101" stroke-width="4" stroke-miterlimit="10" x1="367.8" y1="121.7" x2="567" y2="220.3"/>
</g>
<polygon fill="#B1ADAD" points="425.1,337 575.5,214.2 725.9,278.9 714.4,281.2 577,223.7 441.3,333.9 "/>
<polygon fill="#010101" points="351.7,422.7 407.7,455 407.7,357.7 351.7,326.4 "/>
<polygon fill="#010101" points="267.2,373.3 323.2,406.6 323.2,310.3 267.2,280 "/>
<ellipse fill="#F5E1CE" cx="627.1" cy="483.4" rx="2.9" ry="4.6"/>
<ellipse fill="#F5E1CE" cx="624.7" cy="483.9" rx="2.4" ry="1.6"/>
<path fill="#221F1E" d="M622.2,288c-0.9-21-19.2-32.9-39.7-29.3c-19.8,3.5-33.1,17-33.1,38.8c0,4.1-1.1,0.4,0,4.1L622.2,288z"/>
</svg>
