<?xml version="1.0" encoding="utf-8"?>
<!-- Generator: Adobe Illustrator 18.1.1, SVG Export Plug-In . SVG Version: 6.00 Build 0)  -->
<svg version="1.1" id="Layer_1" xmlns="http://www.w3.org/2000/svg" xmlns:xlink="http://www.w3.org/1999/xlink" x="0px" y="0px"
	 viewBox="0 0 792 907" enable-background="new 0 0 792 907" xml:space="preserve">
<g>
	
		<ellipse transform="matrix(0.8215 0.5702 -0.5702 0.8215 350.7399 -122.5285)" fill="#6E6F72" cx="371.1" cy="499" rx="277" ry="105.7"/>
	<path fill="#231F20" d="M236.8,255c0,0-22.5,1.1-29.4,9.8c-29.6,9.9-40.1,53.4-23.3,97.1c15.1,39.3,47.1,65.4,75,63c0,0,0,0,0,0
		s0,0,0.1,0c3.1-0.3,6.1-0.9,9-1.9c0.5-0.2,1-0.4,1.4-0.5c8.9-2.2,21.2-5.6,28-9.3c29.6-9.9,40.1-53.4,23.3-97.1
		C304.1,272.4,266.4,245.1,236.8,255z"/>
	<path fill="#F7E3CE" d="M245.5,336.1c9.9,31.9,4.4,61.6-12.3,66.3c-16.7,4.7-38.3-17.5-48.3-49.4s-4.4-61.6,12.3-66.3
		S235.5,304.1,245.5,336.1z"/>
	<path fill="#046938" d="M369.3,343.4c0,0-29,1.2-39.4,11.6c-10.3,10.4-11.3,39.7-11.3,39.7s-11.5,3.5-48.1-21.4
		c-36.7-24.9-55.5-49.1-64.2-70c-8.7-20.9-8.8-24.9-19.1-35.6s-39.5-24-45.8,16.5c0,0-12.2-70.8,69.7-83.8s102.4-7.9,110-4.8
		c7.6,3.1,53.6,90.7,56.8,103.7c3.2,13-5.3,32.1-5.3,32.1l1.1,5.5"/>
	<path fill="#B2ADAE" d="M139.7,273.9c4.5,1.2,231,197.7,231,197.7s11,4.4,28.5,0.1c17.5-4.3-6.2-6.1-13.4-10.5s-1.4-15.8,22.4-15.9
		c23.8-0.1,18.6,8.3,16.3,9.9c-2.2,1.6-10.8,9.6-8.4,13.1c2.4,3.5,7.3,18.4,4.4,25.7c-2.9,7.4-32.1,24.2-46.7,11.9
		c-14.6-12.3-226.5-196.7-226.5-196.7S111,266.1,139.7,273.9z"/>
	<path fill="#B2ADAE" d="M367.2,344.6c0,0-8.7-11.2-29.2,1.5c-20.5,12.7-19.3,48.6-19.3,48.6L276.2,377l-19.8,6.6l96.6,80.4
		c0,0,23.6,33.9,59.2-2.9s3.1-21.3,3.1-21.3l-24-49.2L367.2,344.6L367.2,344.6"/>
	<path fill="none" stroke="#818285" stroke-width="4" stroke-miterlimit="10" d="M143.2,273.6c0,0-6.1-2.1-12.5,0
		c-6.3,2.1,1.5,21.2,18,36.2c16.5,15,193.8,169.3,193.8,169.3s46.1,66.4,79.2,3.6"/>
	<path fill="#B2ADAE" d="M377,439.8c-1,3,22.7,43.9,49,51c26.2,7.1,42.5-27.2,44.5-33.1c2-5.9-0.8-26.5-2.5-28.4s-18-1.7-20-5.3
		c-2-3.6-34.7-11.9-38.3-15.1c-3.6-3.3-7.2-3-13.8,0.4S377,439.8,377,439.8z"/>
	<ellipse fill="none" stroke="#818285" stroke-width="4" stroke-miterlimit="10" cx="363.1" cy="429.6" rx="8" ry="20.4"/>
	<path fill="none" stroke="#818285" stroke-width="4" stroke-miterlimit="10" d="M409.6,388.2"/>
	<path fill="none" stroke="#818285" stroke-width="4" stroke-miterlimit="10" d="M266.8,370.7l56.8,50c0,0,16.4,16.1,28.5,17.7
		l3.1-8.7"/>
	<path fill="#046938" d="M354.3,328.7c0,0,28.3-7,32.6-11.4c4.3-4.4,3.4-61.9-1.4-77.4c-4.8-15.5-20.9-71.7-62.2-76.1
		c-41.3-4.4-84.3,33.9-82,43.8s-2.8,15.9-2.1,22.8C239.8,237.3,344,327.2,354.3,328.7z"/>
	<path fill="#B2ADAE" d="M446.5,441c-4.6,0.3-30.6,7-30.6,7s-2.4,10.4,2.7,9.6c5.2-0.8,33.4,1.1,35.4-0.5s104.9-43.5,104.9-43.5
		s16.3-19.8,19.1-21.2s5.7-7.7,5.7-7.7l-2-7c0,0-34.9,18.9-37.7,19.5c-2.7,0.6-62.3,28.8-68.4,31.5s-33.2,11.1-33.2,11.1L446.5,441z
		"/>
	<path fill="#B2ADAE" d="M439.6,366.9c0,0-26.2,19.2-18.4,30.5c7.8,11.4,21.8,42.2,39.1,40.9c17.3-1.3,69.9-16,76.2-27
		c6.3-11-6.1-39.1-14.3-50C514,350.3,454.5,342.6,439.6,366.9z"/>
	<path fill="#231F20" d="M479.2,368.6l-44.6,121.7c0,0-0.8,13.7,4.1,19.2c4.9,5.5,134.7-17.7,134.7-17.7s3.6-5.5-2.4-16.4
		c-6-11-63.7-111.6-63.7-111.6L479.2,368.6L479.2,368.6L479.2,368.6L479.2,368.6l9.9,15.6L479.2,368.6L479.2,368.6L479.2,368.6"/>
	<path fill="#B2ADAE" d="M391.1,365.5c3.2,2.7,2.9,52,23.6,53.3s31.9,2.8,30.1-14.7c-1.8-17.5-18.2-59.7-29.3-55.3
		C404.4,353.3,391.1,365.5,391.1,365.5L391.1,365.5"/>
	<path fill="#B2ADAE" d="M380.1,350c0,0-2.7-5.9-12.9-5.4c-10.2,0.4-11.3,1.8-12.1,8c-0.8,6.2,22.3,36.2,26.7,38.8
		c4.4,2.6,20.3,16.3,27.1,14s14.3-20.7,4.4-31.4C403.3,363.3,380.1,350,380.1,350z"/>
	<path fill="#B2ADAE" d="M367.2,344.6c0,0-15.1,6.2-19.5,16.2c-4.4,10-5,14.7-2.7,18c2.3,3.3,39.3,23.7,50.9,22.3
		c11.6-1.4,18.5-11.6,14.3-17.5s-14.3-19.7-18.4-23.7C387.7,355.8,367.2,344.6,367.2,344.6L367.2,344.6"/>
	<polygon fill="#B2ADAE" points="418.6,409.2 427.9,452 436.5,457.1 451.4,413.9 430.7,401.5 	"/>
	<polygon fill="#B2ADAE" points="415.3,439.8 395.8,401 404.5,402.1 419.8,438.5 	"/>
	<path fill="none" stroke="#818285" stroke-width="4" stroke-miterlimit="10" d="M368.5,444.6c0,0,24.6,66.2,76.5,30.8"/>
	<path fill="#B2ADAE" d="M410.1,442.4c0,0-0.1-11.7,15.6-5.6c15.7,6.1,19.7,20.9,16.6,28.4c-3.1,7.5-17.6,11.5-24.7,2.7
		C410.6,459.1,401.8,449.8,410.1,442.4z"/>
	<path fill="#231F20" d="M410.5,469.1l-11.1-5.4l-52.4,7c0,0,1,3.6,5.7,6.9c4.7,3.3,44.1-4.1,44.1-4.1s1.5,20.6,5.2,24.3
		s14.2,3.6,15.5,2.2c1.3-1.4,7.3-6,8.5-9.2c1.2-3.2,1.7-6.9-0.7-10.2c-2.3-3.3-4.9-3.3-6.9-6.3C416.3,471.5,410.5,469.1,410.5,469.1
		z"/>
	<path fill="#231F20" d="M513,463.8l13.7-17.1l37.8-10.8c0,0,2.5,6.8,0.6,9.1c-2,2.2-20.9,5.5-25.4,9c-4.6,3.5-3.8,18.8-5.5,23.8
		c-1.7,5-1.7,13.9-6.8,10s-8.3-6.1-10.3-7.2c-2-1.1-2.9-5.9-3.6-8.2S513,463.8,513,463.8z"/>
	<path fill="#231F20" d="M350.7,333.6c0,0-2,1-5.2,2c-7.5,2.4-21.9,4.8-35.2-4.8c-19.1-13.8-52.5-35.3-62.8-42.5s-31-36.6,3.4-59.6
		s47.6-40.9,70.2-33.3c22.6,7.7,14.8,16.1,25.6,25c10.9,8.9,35.4,77.5,29.2,86.7S350.7,333.6,350.7,333.6L350.7,333.6"/>
	<path fill="#231F20" d="M321.2,195.5c0,0-6.3-30.7-11-31c-4.7-0.3-64.3-0.9-64.3-0.9s-19.9,2.2-34.3,12.4
		c-14.5,10.2-25.7,22.1-25.7,22.1s2.3,6.5,4.9,13.8c2.6,7.3,7.3,20.6,7.3,20.6s5.8-3.1,23.1,21.4s17.3,24.5,17.3,24.5
		s28-35.6,30.3-41.7C271,230.8,321.2,195.5,321.2,195.5z"/>
	<path fill="#231F20" d="M406.9,500.1c0,0,5,7.6,12.1,12.9c7.1,5.3,23.4,9.1,49.3,6c25.8-3.1,97.8-18.4,97.8-18.4s0.8-10.1,0.3-12.9
		c-0.5-2.7-100.2-16-100.2-16c-7.3,3.4-40.9,3.6-48.5,11.8S406.9,500.1,406.9,500.1z"/>
	<path fill="#046938" d="M256.4,383.5c0,0,28.3-7,32.6-11.4c4.3-4.4,3.4-61.9-1.4-77.4c-4.8-15.5-20.9-71.7-62.2-76.1
		c-41.3-4.4-84.3,33.9-82,43.8s-2.8,15.9-2.1,22.8C141.8,292.2,246,382.1,256.4,383.5z"/>
	<path fill="none" stroke="#818285" stroke-width="4" stroke-miterlimit="10" d="M409.6,388.2c0,0-39.9,10.3-39.9,27.3"/>
	<path fill="none" stroke="#818285" stroke-width="4" stroke-miterlimit="10" d="M359.2,409.3c0,0-22.4-37.3,11.9-49.5"/>
	<path fill="none" stroke="#818285" stroke-width="4" stroke-miterlimit="10" d="M355.1,415.5c0,0-37.8-3.8-36.4-20.8"/>
	<path fill="#046938" d="M323.7,287.7c0,0,4.9,33.7,27.2,54.4c22.3,20.7,73.5,69,92,76.7c18.6,7.7,94.5-21.4,101.3-46.5
		c6.9-25.1-12.8-69.4-24.7-86.6c-11.9-17.3-154.5-25.2-154.5-25.2S320.5,274.2,323.7,287.7z"/>
	<path fill="#F7E3CE" d="M343.9,326.8c3.2,2.9,95.7,80.8,95.7,80.8s1.6-66.3-24.7-86.5c-26.2-20.2-77.7-7.4-77.7-7.4
		S331.6,315.5,343.9,326.8z"/>
	<path fill="#F7E3CE" d="M156.7,289.5c3.2,2.9,95.7,80.8,95.7,80.8s-7.1-101.8-34.4-120.6c-53.9-37.1-68,26.7-68,26.7
		S144.4,278.1,156.7,289.5z"/>
	<path fill="#B2ADAE" d="M463,333.2c0,0-9.8-36.3,41.2-44.8c51-8.5,56.3,33.8,56.3,33.8s-1.2,32.8-15.2,42.1
		c-14,9.3-33.7,14.4-57.4,3C464.3,355.9,463,333.2,463,333.2z"/>
	<path fill="none" stroke="#B2ADAE" stroke-width="4" stroke-miterlimit="10" d="M438.1,268.3c0,0-24.2-99.4,36.9-108.2
		s73.1,36.1,83,90.1"/>
	<path fill="#B2ADAE" d="M547.4,405.2c1.2,3.6,30.5,159.8,30.5,159.8l20.7-3.3L567.2,396L547.4,405.2z"/>
	<path fill="#231F20" d="M565.8,494.4c0,0-19-5.4-27,1.6c-27.2,1.6-47.3,43.1-45,92.7c2.1,44.7,21.7,80.7,45.5,86.3c0,0,0,0,0,0
		s0,0,0.1,0c2.6,0.6,5.3,0.9,7.9,0.7c0.4,0,0.9-0.1,1.3-0.1c7.9,0.3,19,0.4,25.6-1.4c27.2-1.6,47.3-43.1,45-92.7
		C616.9,531.7,593,492.8,565.8,494.4z"/>
	<path fill="#F7E3CE" d="M588.6,588c-0.1,41.6-20.9,75.4-46.6,75.4c-25.6,0.1-46.3-33.6-46.2-75.2s20.9-75.4,46.6-75.4
		C568,512.7,588.7,546.4,588.6,588z"/>
	<ellipse fill="#B2ADAE" cx="532.6" cy="590" rx="35.5" ry="54.8"/>
	<path fill="#046938" d="M491.7,531.6c1.8-30.6,24.1-39.4,46.4-39.8c22.4-0.4,32.2-9.2,68.1,30.3c0,0,14.7,40.3,13.3,53.6
		c-0.7,6.5-17.8,17-30,19.8c-12.2,2.7-34.9,3.2-34.9,3.2s-8.8-64.2-37-69.9c-15.2-3.1,1.1,60.3-18.6,52
		c-19.7-8.3-18.6-10.4-18.6-10.4S489.6,566.6,491.7,531.6z"/>
	<path fill="#B2ADAE" d="M459.9,370.6c0.5,3,19.5,50,19.5,50l28.8-4.6l-4.5-52.4L459.9,370.6z"/>
	<path fill="#B2ADAE" d="M484.9,414.9c1.3,4.4,35.9,194.1,35.9,194.1l20.7-3.3l-37.1-201.3L484.9,414.9z"/>
	<path fill="#B2ADAE" d="M526,359.2c0.5,3,19.5,50,19.5,50l28.8-4.6l-4.5-52.4L526,359.2z"/>
	<path fill="#B2ADAE" d="M459.9,370.6c0,0,62.6,1.6,106.3-17.8l3.7-0.6l-15.5-98.4l-14.7,3.1l11.3,82.9c0,0-28,17.5-49.1,16
		s-27.5,1.4-27.5,1.4l-10.2-87.5l-14.9,1.2C449.4,271,456.6,350.6,459.9,370.6z"/>
	<path fill="#B2ADAE" d="M435.6,273.6L469,270c0,0,23.6-12.9,38-9.9c14.4,3,26.5,3.1,26.5,3.1l27.7-6.7l-0.6-11.4
		c0,0-61.8-3.8-125.6,17.5L435.6,273.6z"/>
	<path fill="#B2ADAE" d="M467.9,283.1c0,0,33.2-16.4,71.1-9l2.1,9.3c0,0-6.5,32-16.5,53.6l-17.1,5
		C507.6,342,475.6,317.3,467.9,283.1z"/>
	<polygon fill="#B2ADAE" points="458.1,285.9 549.4,272.8 549.8,281.2 461,295.1 	"/>
	<circle fill="#B2ADAE" cx="511.3" cy="322.1" r="37.7"/>
	<circle fill="#B2ADAE" cx="459.9" cy="331.9" r="10.6"/>
	<circle fill="#B2ADAE" cx="558.8" cy="317.6" r="10.6"/>
	<path fill="#B2ADAE" d="M458.7,285.9l-21.2-11c0,0-5.7-6.7-25.6-5.1c-19.9,1.6-28.5,1.5-28.5,1.5s-2.1,1.8,0.3,6.5
		c2.4,4.7,2.4,4.7,2.4,4.7l31.6-3.7c0,0,16.6,0.7,33,13.2C467.3,304.4,458.7,285.9,458.7,285.9z"/>
	<path fill="#B2ADAE" d="M425.9,270.1c0,0,6-15.4-0.8-16s-15.3-2.4-15.3-2.4l-0.1-1.9c0,0,2.7,0,6,0c4.8,0.1,10.8,0.3,12.2,1
		c2.4,1.2,4.8,3.4,3.7,9.5c-1.1,6.1-3.7,10.2-3.7,10.2L425.9,270.1z"/>
	<path fill="#B2ADAE" d="M396.6,237c-10.8,2.5-14.6,12.4-14.6,12.4s2.8,8.3,10.4,10.7c7.6,2.4,23.8,4.4,25.8-4.6
		S416.9,232.2,396.6,237z"/>
	<path fill="#B2ADAE" d="M546.8,274.6l19.9-13.2c0,0,5-7.3,24.9-7.8c19.9-0.5,28.5-1.5,28.5-1.5s2.2,1.5,0.3,6.5c-1.9,5-1.9,5-1.9,5
		l-31.8-0.4c0,0-16.4,2.5-31.5,16.6C540.2,293.9,546.8,274.6,546.8,274.6z"/>
	<path fill="#B2ADAE" d="M577.8,255.4c0,0-7.6-14.7-0.8-16s15-4,15-4l-0.1-1.9c0,0-2.7,0.2-6,0.6c-4.7,0.5-10.8,1.4-12.1,2.2
		c-2.2,1.5-4.4,3.9-2.7,9.9s4.7,9.7,4.7,9.7L577.8,255.4z"/>
	<path fill="#B2ADAE" d="M603.5,219.5c11,1.4,15.8,10.8,15.8,10.8s-1.9,8.5-9.2,11.7s-23.2,6.8-26.1-1.9
		C581,231.3,582.7,216.8,603.5,219.5z"/>
	<circle fill="none" stroke="#818285" stroke-width="4" stroke-miterlimit="10" cx="514.5" cy="322.1" r="35.5"/>
	<circle fill="none" stroke="#818285" stroke-width="4" stroke-miterlimit="10" cx="515.9" cy="323.5" r="7.1"/>
	<circle fill="none" stroke="#818285" stroke-width="4" stroke-miterlimit="10" cx="458.5" cy="331.9" r="9"/>
	<circle fill="none" stroke="#818285" stroke-width="4" stroke-miterlimit="10" cx="458.8" cy="332.2" r="1.8"/>
	<circle fill="none" stroke="#818285" stroke-width="4" stroke-miterlimit="10" cx="560.2" cy="317.6" r="9"/>
	<circle fill="none" stroke="#818285" stroke-width="4" stroke-miterlimit="10" cx="560.5" cy="317.9" r="1.8"/>
	<polyline fill="none" stroke="#818285" stroke-width="4" stroke-miterlimit="10" points="498.1,352.1 508.2,416.1 479.4,420.7 
		459.9,370.6 458.5,340.8 	"/>
	<polyline fill="none" stroke="#818285" stroke-width="4" stroke-miterlimit="10" points="527.4,355 545.5,409.3 574.4,404.7 
		568.7,344.5 563.8,325.8 	"/>
	<path fill="none" stroke="#818285" stroke-width="4" stroke-miterlimit="10" d="M557.4,307.2c-31.7-38.4-68.1-17-87.6,0
		c-8.8,7.6-14.1,14.3-14.1,14.3l-6.3-50.5l14.9-1.2l3.2,27.2l1.6,10.8"/>
	<polyline fill="none" stroke="#818285" stroke-width="4" stroke-miterlimit="10" points="486.7,418.2 520.8,609 541.5,605.7 
		508.2,416.1 	"/>
	<polyline fill="none" stroke="#818285" stroke-width="4" stroke-miterlimit="10" points="544.7,293.4 539.7,257 554.4,253.8 
		560.2,308.6 	"/>
	<line fill="none" stroke="#818285" stroke-width="4" stroke-miterlimit="10" x1="549.1" y1="408.9" x2="563.1" y2="491.1"/>
	<line fill="none" stroke="#818285" stroke-width="4" stroke-miterlimit="10" x1="568.1" y1="405.7" x2="584.4" y2="500.3"/>
	<path fill="#231F20" d="M591.6,253.6v8.4l26.9,1.5c0,0,2.9-6.6,1.6-11.4L591.6,253.6z"/>
	<path fill="#231F20" d="M383.4,271.2c0,0-2.9,2.5,2.7,11.2l29.1-3.8l-3.4-8.9L383.4,271.2z"/>
	<path fill="none" stroke="#231F20" stroke-width="4" stroke-miterlimit="10" d="M259.8,233.2c0,0,29.9,45.1,30.8,80.1
		s-1.7,56-1.7,56s-4.6,8.2-8.7,6.5l38.5,18.8c0,0-3.3-42.8,32.2-52.6"/>
	<path fill="#B2ADAE" d="M570.6,507c1.3,0.1,25-0.7,27.7,2.2c2.7,2.9,6.5,7.1,5.5,16.2c-0.9,9.1-3,15.8-9,17.9
		c-5.9,2.1-11.5,3.7-14.2,0s-17.4-31.7-18.5-33.5C561,508,567.1,506.9,570.6,507z"/>
</g>
</svg>
