<?xml version="1.0" encoding="utf-8"?>
<!-- Generator: Adobe Illustrator 18.1.1, SVG Export Plug-In . SVG Version: 6.00 Build 0)  -->
<svg version="1.1" id="Layer_1" xmlns="http://www.w3.org/2000/svg" xmlns:xlink="http://www.w3.org/1999/xlink" x="0px" y="0px"
	 viewBox="0 406 792 818" enable-background="new 0 406 792 818" xml:space="preserve">
<g>
	
		<ellipse transform="matrix(0.5702 -0.8215 0.8215 0.5702 -569.7925 712.1364)" fill="#6E6F72" cx="395.7" cy="900.6" rx="91.8" ry="240.6"/>
	<path fill="#231F20" d="M279,688.6c0,0-19.5,1-25.5,8.5c-25.7,8.6-34.8,46.4-20.2,84.4c13.1,34.1,40.9,56.8,65.2,54.7l0,0
		c0,0,0,0,0.1,0c2.7-0.3,5.3-0.8,7.8-1.7c0.4-0.2,0.9-0.3,1.2-0.4c7.7-1.9,18.4-4.9,24.3-8.1c25.7-8.6,34.8-46.4,20.2-84.4
		C337.5,703.8,304.8,680,279,688.6z"/>
	<path fill="#F7E3CE" d="M286.6,759.1c8.6,27.7,3.8,53.5-10.7,57.6c-14.5,4.1-33.3-15.2-42-42.9c-8.7-27.7-3.8-53.5,10.7-57.6
		C259.2,712.1,277.9,731.3,286.6,759.1z"/>
	<path fill="#046938" d="M394.1,765.4c0,0-25.2,1-34.2,10.1c-8.9,9-9.8,34.5-9.8,34.5s-10,3-41.8-18.6
		c-31.9-21.6-48.2-42.7-55.8-60.8c-7.6-18.2-7.6-21.6-16.6-30.9s-34.3-20.8-39.8,14.3c0,0-10.6-61.5,60.5-72.8
		c71.1-11.3,89-6.9,95.6-4.2c6.6,2.7,46.6,78.8,49.3,90.1c2.8,11.3-4.6,27.9-4.6,27.9l1,4.8"/>
	<path fill="#B2ADAE" d="M194.7,705.1c3.9,1,200.7,171.7,200.7,171.7s9.6,3.8,24.8,0.1c15.2-3.7-5.4-5.3-11.6-9.1
		s-1.2-13.7,19.5-13.8c20.7-0.1,16.2,7.2,14.2,8.6c-1.9,1.4-9.4,8.3-7.3,11.4s6.3,16,3.8,22.3c-2.5,6.4-27.9,21-40.6,10.3
		c-12.7-10.7-196.8-170.9-196.8-170.9S169.8,698.3,194.7,705.1z"/>
	<path fill="#B2ADAE" d="M392.3,766.5c0,0-7.6-9.7-25.4,1.3c-17.8,11-16.8,42.2-16.8,42.2l-36.9-15.4l-17.2,5.7l83.9,69.8
		c0,0,20.5,29.4,51.4-2.5s2.7-18.5,2.7-18.5l-20.8-42.7L392.3,766.5L392.3,766.5"/>
	<path fill="none" stroke="#818285" stroke-width="4" stroke-miterlimit="10" d="M197.7,704.8c0,0-5.3-1.8-10.9,0
		c-5.5,1.8,1.3,18.4,15.6,31.4c14.3,13,168.4,147.1,168.4,147.1s40,57.7,68.8,3.1"/>
	<path fill="#B2ADAE" d="M400.8,849.2c-0.9,2.6,19.7,38.1,42.6,44.3c22.8,6.2,36.9-23.6,38.7-28.8c1.7-5.1-0.7-23-2.2-24.7
		c-1.5-1.7-15.6-1.5-17.4-4.6c-1.7-3.1-30.1-10.3-33.3-13.1c-3.1-2.9-6.3-2.6-12,0.3S400.8,849.2,400.8,849.2z"/>
	<ellipse fill="none" stroke="#818285" stroke-width="4" stroke-miterlimit="10" cx="388.8" cy="840.3" rx="6.9" ry="17.7"/>
	<path fill="none" stroke="#818285" stroke-width="4" stroke-miterlimit="10" d="M429.2,804.4"/>
	<path fill="none" stroke="#818285" stroke-width="4" stroke-miterlimit="10" d="M305.1,789.2l49.3,43.4c0,0,14.2,14,24.8,15.4
		l2.7-7.6"/>
	<path fill="#046938" d="M381.1,752.7c0,0,24.6-6.1,28.3-9.9c3.7-3.8,3-53.8-1.2-67.2c-4.2-13.5-18.2-62.3-54-66.1
		c-35.9-3.8-73.2,29.4-71.2,38s-2.4,13.8-1.8,19.8C281.7,673.3,372.2,751.4,381.1,752.7z"/>
	<path fill="#B2ADAE" d="M461.2,850.2c-4,0.3-26.6,6.1-26.6,6.1s-2.1,9,2.3,8.3c4.5-0.7,29,1,30.8-0.4c1.7-1.4,91.1-37.8,91.1-37.8
		s14.2-17.2,16.6-18.4c2.4-1.2,5-6.7,5-6.7l-1.7-6.1c0,0-30.3,16.4-32.8,16.9c-2.3,0.5-54.1,25-59.4,27.4
		c-5.3,2.3-28.8,9.6-28.8,9.6L461.2,850.2z"/>
	<path fill="#B2ADAE" d="M455.2,785.9c0,0-22.8,16.7-16,26.5c6.8,9.9,18.9,36.7,34,35.5c15-1.1,60.7-13.9,66.2-23.5
		c5.5-9.6-5.3-34-12.4-43.4C519.8,771.4,468.2,764.7,455.2,785.9z"/>
	<path fill="#231F20" d="M489.6,787.3l-38.7,105.7c0,0-0.7,11.9,3.6,16.7c4.3,4.8,117-15.4,117-15.4s3.1-4.8-2.1-14.2
		c-5.2-9.6-55.3-96.9-55.3-96.9L489.6,787.3L489.6,787.3L489.6,787.3L489.6,787.3l8.6,13.6L489.6,787.3L489.6,787.3L489.6,787.3"/>
	<path fill="#B2ADAE" d="M413.1,784.6c2.8,2.3,2.5,45.2,20.5,46.3c18,1.1,27.7,2.4,26.1-12.8s-15.8-51.9-25.5-48
		C424.6,774,413.1,784.6,413.1,784.6L413.1,784.6"/>
	<path fill="#B2ADAE" d="M403.5,771.2c0,0-2.3-5.1-11.2-4.7c-8.9,0.3-9.8,1.6-10.5,6.9c-0.7,5.4,19.4,31.4,23.2,33.7
		s17.6,14.2,23.5,12.2s12.4-18,3.8-27.3C423.7,782.7,403.5,771.2,403.5,771.2z"/>
	<path fill="#B2ADAE" d="M392.3,766.5c0,0-13.1,5.4-16.9,14.1c-3.8,8.7-4.3,12.8-2.3,15.6c2,2.9,34.1,20.6,44.2,19.4
		c10.1-1.2,16.1-10.1,12.4-15.2c-3.6-5.1-12.4-17.1-16-20.6C410.1,776.2,392.3,766.5,392.3,766.5L392.3,766.5"/>
	<polygon fill="#B2ADAE" points="437,822.6 445.1,859.8 452.5,864.2 465.5,826.7 447.5,815.9 	"/>
	<polygon fill="#B2ADAE" points="434.1,849.2 417.2,815.5 424.7,816.4 438,848.1 	"/>
	<path fill="none" stroke="#818285" stroke-width="4" stroke-miterlimit="10" d="M393.5,853.4c0,0,21.4,57.5,66.5,26.8"/>
	<path fill="#B2ADAE" d="M429.6,851.4c0,0-0.1-10.2,13.6-4.9c13.6,5.3,17.1,18.2,14.4,24.7s-15.3,10-21.5,2.3
		C430,865.9,422.4,857.9,429.6,851.4z"/>
	<path fill="#231F20" d="M429.9,874.6l-9.6-4.7l-45.5,6.1c0,0,0.9,3.1,5,6c4.1,2.9,38.3-3.6,38.3-3.6s1.3,17.9,4.5,21.1
		c3.2,3.2,12.3,3.1,13.5,1.9c1.1-1.2,6.3-5.2,7.4-8c1-2.8,1.5-6-0.6-8.9c-2-2.9-4.3-2.9-6-5.5C435,876.7,429.9,874.6,429.9,874.6z"
		/>
	<path fill="#231F20" d="M519,870l11.9-14.9l32.8-9.4c0,0,2.2,5.9,0.5,7.9c-1.7,1.9-18.2,4.8-22.1,7.8c-4,3-3.3,16.3-4.8,20.7
		s-1.5,12.1-5.9,8.7s-7.2-5.3-8.9-6.3c-1.7-1-2.5-5.1-3.1-7.1S519,870,519,870z"/>
	<path fill="#231F20" d="M378,756.9c0,0-1.7,0.9-4.5,1.7c-6.5,2.1-19,4.2-30.6-4.2c-16.6-12-45.6-30.7-54.6-36.9s-26.9-31.8,3-51.8
		c29.9-20,41.4-35.5,61-28.9c19.6,6.7,12.9,14,22.2,21.7c9.5,7.7,30.8,67.3,25.4,75.3C394.5,741.9,378,756.9,378,756.9L378,756.9"/>
	<path fill="#231F20" d="M352.4,637c0,0-5.5-26.7-9.6-26.9c-4.1-0.3-55.9-0.8-55.9-0.8s-17.3,1.9-29.8,10.8
		c-12.6,8.9-22.3,19.2-22.3,19.2s2,5.6,4.3,12c2.3,6.3,6.3,17.9,6.3,17.9s5-2.7,20.1,18.6c15,21.3,15,21.3,15,21.3
		s24.3-30.9,26.3-36.2C308.8,667.6,352.4,637,352.4,637z"/>
	<path fill="#231F20" d="M426.8,901.6c0,0,4.3,6.6,10.5,11.2s20.3,7.9,42.8,5.2c22.4-2.7,85-16,85-16s0.7-8.8,0.3-11.2
		c-0.4-2.3-87-13.9-87-13.9c-6.3,3-35.5,3.1-42.1,10.3S426.8,901.6,426.8,901.6z"/>
	<path fill="#046938" d="M296.1,800.3c0,0,24.6-6.1,28.3-9.9c3.7-3.8,3-53.8-1.2-67.2s-18.2-62.3-54-66.1
		c-35.9-3.8-73.2,29.4-71.2,38c2,8.6-2.4,13.8-1.8,19.8C196.5,721,287,799.1,296.1,800.3z"/>
	<path fill="none" stroke="#818285" stroke-width="4" stroke-miterlimit="10" d="M429.2,804.4c0,0-34.7,8.9-34.7,23.7"/>
	<path fill="none" stroke="#818285" stroke-width="4" stroke-miterlimit="10" d="M385.4,822.7c0,0-19.5-32.4,10.3-43"/>
	<path fill="none" stroke="#818285" stroke-width="4" stroke-miterlimit="10" d="M381.8,828.1c0,0-32.8-3.3-31.6-18.1"/>
	<path fill="#046938" d="M354.5,717.1c0,0,4.3,29.3,23.6,47.3c19.4,18,63.8,59.9,79.9,66.6c16.2,6.7,82.1-18.6,88-40.4
		c6-21.8-11.1-60.3-21.5-75.2c-10.3-15-134.2-21.9-134.2-21.9S351.8,705.3,354.5,717.1z"/>
	<path fill="#F7E3CE" d="M372.1,751c2.8,2.5,83.1,70.2,83.1,70.2s1.4-57.6-21.5-75.1c-22.8-17.5-67.5-6.4-67.5-6.4
		S361.4,741.2,372.1,751z"/>
	<path fill="#F7E3CE" d="M209.5,718.6c2.8,2.5,83.1,70.2,83.1,70.2s-6.2-88.4-29.9-104.8c-46.8-32.2-59.1,23.2-59.1,23.2
		S198.8,708.7,209.5,718.6z"/>
	<path fill="#B2ADAE" d="M475.5,756.6c0,0-8.5-31.5,35.8-38.9s48.9,29.4,48.9,29.4s-1,28.5-13.2,36.6c-12.2,8.1-29.3,12.5-49.9,2.6
		C476.7,776.3,475.5,756.6,475.5,756.6z"/>
	<path fill="none" stroke="#B2ADAE" stroke-width="4" stroke-miterlimit="10" d="M453.9,700.2c0,0-21-86.3,32.1-94
		s63.5,31.4,72.1,78.3"/>
	<path fill="#B2ADAE" d="M548.9,819.1c1,3.1,26.5,138.8,26.5,138.8l18-2.9l-27.3-143.9L548.9,819.1z"/>
	<path fill="#231F20" d="M564.8,896.6c0,0-16.5-4.7-23.5,1.4c-23.6,1.4-41.1,37.4-39.1,80.5c1.8,38.8,18.9,70.1,39.5,75l0,0
		c0,0,0,0,0.1,0c2.3,0.5,4.6,0.8,6.9,0.6c0.3,0,0.8-0.1,1.1-0.1c6.9,0.3,16.5,0.3,22.2-1.2c23.6-1.4,41.1-37.4,39.1-80.5
		C609.2,929,588.5,895.2,564.8,896.6z"/>
	<path fill="#F7E3CE" d="M584.7,977.9c-0.1,36.1-18.2,65.5-40.5,65.5c-22.2,0.1-40.2-29.2-40.1-65.3c0.1-36.1,18.2-65.5,40.5-65.5
		C566.8,912.5,584.7,941.8,584.7,977.9z"/>
	<ellipse fill="#B2ADAE" cx="536" cy="979.7" rx="30.8" ry="47.6"/>
	<path fill="#046938" d="M500.5,928.9c1.6-26.6,20.9-34.2,40.3-34.6c19.5-0.3,28-8,59.2,26.3c0,0,12.8,35,11.6,46.6
		c-0.6,5.6-15.5,14.8-26.1,17.2c-10.6,2.3-30.3,2.8-30.3,2.8s-7.6-55.8-32.1-60.7c-13.2-2.7,1,52.4-16.2,45.2
		c-17.1-7.2-16.2-9-16.2-9S498.7,959.3,500.5,928.9z"/>
	<path fill="#B2ADAE" d="M472.9,789.1c0.4,2.6,16.9,43.4,16.9,43.4l25-4l-3.9-45.5L472.9,789.1z"/>
	<path fill="#B2ADAE" d="M494.6,827.6c1.1,3.8,31.2,168.6,31.2,168.6l18-2.9l-32.2-174.9L494.6,827.6z"/>
	<path fill="#B2ADAE" d="M530.3,779.2c0.4,2.6,16.9,43.4,16.9,43.4l25-4l-3.9-45.5L530.3,779.2z"/>
	<path fill="#B2ADAE" d="M472.9,789.1c0,0,54.4,1.4,92.3-15.5l3.2-0.5l-13.5-85.5l-12.8,2.7l9.8,72c0,0-24.3,15.2-42.7,13.9
		s-23.9,1.2-23.9,1.2l-8.9-76l-12.9,1C463.7,702.5,470,771.7,472.9,789.1z"/>
	<path fill="#B2ADAE" d="M451.7,704.8l29-3.1c0,0,20.5-11.2,33-8.6c12.5,2.6,23,2.7,23,2.7l24.1-5.8l-0.5-9.9
		c0,0-53.7-3.3-109.1,15.2L451.7,704.8z"/>
	<path fill="#B2ADAE" d="M479.8,713.1c0,0,28.8-14.2,61.8-7.8l1.8,8.1c0,0-5.6,27.8-14.3,46.6l-14.9,4.3
		C514.3,764.2,486.5,742.8,479.8,713.1z"/>
	<polygon fill="#B2ADAE" points="471.3,715.5 550.6,704.1 550.9,711.4 473.8,723.5 	"/>
	<circle fill="#B2ADAE" cx="517.5" cy="746.9" r="32.8"/>
	<circle fill="#B2ADAE" cx="472.9" cy="755.5" r="9.2"/>
	<circle fill="#B2ADAE" cx="558.8" cy="743" r="9.2"/>
	<path fill="#B2ADAE" d="M471.8,715.5l-18.4-9.6c0,0-5-5.8-22.2-4.4c-17.3,1.4-24.8,1.3-24.8,1.3s-1.8,1.6,0.3,5.6s2.1,4.1,2.1,4.1
		l27.5-3.2c0,0,14.4,0.6,28.7,11.5C479.3,731.6,471.8,715.5,471.8,715.5z"/>
	<path fill="#B2ADAE" d="M443.3,701.8c0,0,5.2-13.4-0.7-13.9c-5.9-0.5-13.3-2.1-13.3-2.1l-0.1-1.7c0,0,2.3,0,5.2,0
		c4.2,0.1,9.4,0.3,10.6,0.9c2.1,1,4.2,3,3.2,8.3s-3.2,8.9-3.2,8.9L443.3,701.8z"/>
	<path fill="#B2ADAE" d="M417.9,673c-9.4,2.2-12.7,10.8-12.7,10.8s2.4,7.2,9,9.3c6.6,2.1,20.7,3.8,22.4-4
		C438.4,681.3,435.5,668.8,417.9,673z"/>
	<path fill="#B2ADAE" d="M548.3,705.7l17.3-11.5c0,0,4.3-6.3,21.6-6.8c17.3-0.4,24.8-1.3,24.8-1.3s1.9,1.3,0.3,5.6s-1.7,4.3-1.7,4.3
		l-27.6-0.3c0,0-14.2,2.2-27.4,14.4C542.6,722.4,548.3,705.7,548.3,705.7z"/>
	<path fill="#B2ADAE" d="M575.3,689c0,0-6.6-12.8-0.7-13.9s13-3.5,13-3.5l-0.1-1.7c0,0-2.3,0.2-5.2,0.5c-4.1,0.4-9.4,1.2-10.5,1.9
		c-1.9,1.3-3.8,3.4-2.3,8.6s4.1,8.4,4.1,8.4L575.3,689z"/>
	<path fill="#B2ADAE" d="M597.6,657.8c9.6,1.2,13.7,9.4,13.7,9.4s-1.7,7.4-8,10.2c-6.3,2.8-20.2,5.9-22.7-1.7
		C578.1,668.1,579.5,655.5,597.6,657.8z"/>
	<circle fill="none" stroke="#818285" stroke-width="4" stroke-miterlimit="10" cx="520.3" cy="746.9" r="30.8"/>
	<circle fill="none" stroke="#818285" stroke-width="4" stroke-miterlimit="10" cx="521.5" cy="748.2" r="6.2"/>
	<circle fill="none" stroke="#818285" stroke-width="4" stroke-miterlimit="10" cx="471.6" cy="755.5" r="7.8"/>
	<circle fill="none" stroke="#818285" stroke-width="4" stroke-miterlimit="10" cx="471.9" cy="755.7" r="1.6"/>
	<circle fill="none" stroke="#818285" stroke-width="4" stroke-miterlimit="10" cx="560" cy="743" r="7.8"/>
	<circle fill="none" stroke="#818285" stroke-width="4" stroke-miterlimit="10" cx="560.2" cy="743.3" r="1.6"/>
	<polyline fill="none" stroke="#818285" stroke-width="4" stroke-miterlimit="10" points="506,773 514.8,828.6 489.8,832.6 
		472.9,789.1 471.6,763.2 	"/>
	<polyline fill="none" stroke="#818285" stroke-width="4" stroke-miterlimit="10" points="531.5,775.5 547.2,822.7 572.3,818.7 
		567.4,766.4 563.1,750.2 	"/>
	<path fill="none" stroke="#818285" stroke-width="4" stroke-miterlimit="10" d="M557.6,734c-27.5-33.4-59.2-14.8-76.1,0
		c-7.6,6.6-12.2,12.4-12.2,12.4l-5.5-43.9l12.9-1l2.8,23.6l1.4,9.4"/>
	<polyline fill="none" stroke="#818285" stroke-width="4" stroke-miterlimit="10" points="496.1,830.4 525.8,996.2 543.7,993.3 
		514.8,828.6 	"/>
	<polyline fill="none" stroke="#818285" stroke-width="4" stroke-miterlimit="10" points="546.5,722 542.2,690.4 554.9,687.6 
		560,735.2 	"/>
	<line fill="none" stroke="#818285" stroke-width="4" stroke-miterlimit="10" x1="550.3" y1="822.3" x2="562.5" y2="893.7"/>
	<line fill="none" stroke="#818285" stroke-width="4" stroke-miterlimit="10" x1="566.8" y1="819.6" x2="581" y2="901.7"/>
	<path fill="#231F20" d="M587.3,687.4v7.3l23.4,1.3c0,0,2.5-5.7,1.4-9.9L587.3,687.4z"/>
	<path fill="#231F20" d="M406.4,702.7c0,0-2.5,2.2,2.3,9.7l25.3-3.3l-3-7.7L406.4,702.7z"/>
	<path fill="none" stroke="#231F20" stroke-width="4" stroke-miterlimit="10" d="M299,669.7c0,0,26,39.2,26.8,69.6
		c0.8,30.4-1.5,48.6-1.5,48.6s-4,7.1-7.6,5.6l33.4,16.3c0,0-2.9-37.2,28-45.7"/>
	<path fill="#B2ADAE" d="M569,907.6c1.1,0.1,21.7-0.6,24.1,1.9c2.3,2.5,5.6,6.2,4.8,14.1c-0.8,7.9-2.6,13.7-7.8,15.5
		c-5.1,1.8-10,3.2-12.3,0c-2.3-3.2-15.1-27.5-16.1-29.1C560.7,908.4,566,907.5,569,907.6z"/>
</g>
</svg>
