<?xml version="1.0" encoding="utf-8"?>
<!-- Generator: Adobe Illustrator 18.1.1, SVG Export Plug-In . SVG Version: 6.00 Build 0)  -->
<svg version="1.1" id="Layer_1" xmlns="http://www.w3.org/2000/svg" xmlns:xlink="http://www.w3.org/1999/xlink" x="0px" y="0px"
	 viewBox="0 0 792 951.2" enable-background="new 0 0 792 951.2" xml:space="preserve">
<circle fill="#B1ACAD" cx="396.1" cy="340.3" r="231.3"/>
<g>
	<path fill-rule="evenodd" clip-rule="evenodd" d="M521.8,354.3c-5.1,5.5-15.3,4.6-19.5,0c0-0.7,0-1.5,0-2.3c0-20,0-40,0-60
		c0-0.7,0-1.5,0-2.2c-0.1-1.2-0.8-2.1-2-2.5c-1.1-0.4-2.2-0.4-3.3,0c-1.2,0.4-1.8,1.3-1.9,2.6c0,0.7,0,1.3,0,2c0,60,0,120,0,180
		c0,0.6-0.1,1.2,0,1.8c0.1,0.9-0.4,1.5-1,2c-1.6,1.2-3.4,1.8-5.3,2.2c-3.5,0.7-7,0.7-10.5,0c-1.6-0.3-3.1-0.8-4.4-1.7
		c-1-0.7-1.5-1.5-1.5-2.8c0.1-3.5,0-7.1,0-10.6c0-31.4,0-62.8,0-94.2c0-1.3,0-2.5-0.3-3.8c-0.3-1.2-1.1-2.1-2.2-2.7
		c-2.6-1.4-5.5,0.6-5.9,2.6c-0.2,0.9-0.3,1.8-0.4,2.8c-0.1,0.7,0,1.3,0,2c0,34.1,0,68.3,0,102.4c0,0.5-0.1,1.1,0,1.6
		c0.2,1.2-0.4,2.1-1.4,2.6c-1,0.5-2,1.1-3.1,1.4c-3.4,1-6.8,1-10.3,0.6c-1.1-0.1-2.1-0.3-3.1-0.7c-1.1-0.3-2.1-0.8-3.1-1.3
		c-1.2-0.6-1.9-1.6-1.7-3.1c0.1-0.7,0-1.3,0-2c0-59.7,0-119.4,0-179.2c0-0.7,0.1-1.3,0-2c-0.1-0.6-0.3-1.2-0.6-1.7
		c-1.1-1.4-2.7-1.3-4.2-1c-1.4,0.3-2.2,1.3-2.4,2.7c-0.1,0.7-0.1,1.5-0.1,2.2c0,19.9,0,39.9,0,59.8c0,0.5,0,1.1,0,1.6
		c0.1,0.9-0.3,1.5-1,2c-3.3,2.3-6.9,3.1-10.8,2.7c-2.4-0.3-4.6-1.2-6.6-2.6c-0.7-0.5-1.1-1.1-1-2c0.1-0.6,0-1.2,0-1.8
		c0-23.1,0-46.1,0-69.2c0-2,0-4,0.2-6c0.3-3.2,1.1-6.3,2.5-9.2c2.9-6,7.7-9.7,14-11.7c2.9-0.9,5.8-1.3,8.9-1.3c10.9,0,21.7,0,32.6,0
		c8.1,0,16.1,0,24.2,0c3,0,5.8,0.4,8.7,1.2c8.6,2.7,14,8.5,16,17.3c0.5,2.3,0.8,4.6,0.8,6.9c0,24.1,0,48.3,0,72.4
		C521.8,352.8,521.8,353.6,521.8,354.3z"/>
	<path fill-rule="evenodd" clip-rule="evenodd" fill="#F5E1CE" d="M445.1,224.6c0-11.4,9-22.2,22.3-22.3c12.6,0,22.4,10,22.4,22.4
		c0,12.8-10.4,22.4-22.5,22.3C454.5,246.8,445,236.5,445.1,224.6z"/>
</g>
<g>
	<path fill-rule="evenodd" clip-rule="evenodd" fill="#8D5343" d="M303.2,224.3c0.1-11.6,9.4-22.2,22.5-22
		c13.6,0.1,22.4,11.4,22.2,22.8c-0.3,12.2-10.4,22.1-22.7,21.9C312.6,246.7,303,236.5,303.2,224.3z"/>
	<path fill="#FFFFFF" d="M389.4,444.2c-4.9-24-14.4-59.7-14.4-59.7c-0.2-0.8-0.4-1.4-0.6-2.1c-8.8-27.3-17.6-54.6-26.4-82
		c-1.1-3.4-2.2-6.8-3.3-10.3c-0.5-1.5-0.1-2.3,1.2-3c0.6-0.3,1.2-0.5,1.9-0.6c1.3-0.2,2.3,0.5,2.8,1.8c0.1,0.3,0.2,0.6,0.3,0.9
		c6.2,18.4,12.4,36.9,18.6,55.3c0.5,1.4,1,2.8,1.4,4.2c0.2,0.7,0.7,1.1,1.3,1.3c1.3,0.4,2.6,0.6,3.9,0.6c3.4-0.2,6.6-1,9.5-2.7
		c1-0.6,1.9-1.3,2.6-2.1c1.1-1.1,1.6-2.5,0.7-4c-0.1-0.2-0.1-0.4-0.2-0.6c-8.3-22.9-16.7-45.8-25-68.7c-1.3-3.6-3-7.1-5.3-10.3
		c-1.9-2.6-4.3-4.7-7.3-6.1c-3.1-1.4-6.4-2.2-9.9-2.2c-10.1,0-20.3,0-30.4,0c-1.5,0-3.1,0.1-4.6,0.5c-5.7,1.2-10.2,4-13.4,9
		c-1.9,2.9-3.4,6-4.6,9.3c-6.4,17.6-12.8,35.2-19.2,52.8c-2,5.4-3.9,10.9-6,16.3c-0.6,1.6-0.3,2.9,0.8,4c0.8,0.8,1.7,1.5,2.6,2.1
		c2.3,1.3,4.7,2.1,7.3,2.5c1.5,0.2,2.9,0.3,4.4,0.1c1.8-0.2,3.2-0.9,3.5-2.9c6.5-19.4,13.1-38.9,19.6-58.3c0.1-0.4,0.3-0.9,0.4-1.3
		c0.2-0.6,0.6-0.9,1.1-1.1c1.4-0.6,2.8-0.2,3.9,0.6c0.9,0.7,1.1,1.3,0.7,2.4c-0.1,0.3-0.2,0.6-0.3,1c-5.7,17.8-11.5,35.6-17.2,53.4
		c-4.1,12.6-8.1,25.2-12.2,37.8c-0.2,0.7-0.4,1.4-0.6,2.2c0,0-7.7,31.2-10.2,56.2c-1.6,16.4,17.5,22.7,35.3,25.1c0,2.9,0,5.9,0,8.9
		c4.7,4.9,16.5,4.5,20.2,0c0-0.8,0-1.6,0-2.5c0-1.7,0-3.3,0-5c1.3,0,2.6,0,3.6,0c1,0,2.3,0,3.6,0c0,1.8,0,3.6,0,5.3
		c0,0.8,0,1.6,0,2.3c1.2,1.3,2.6,2,4,2.4c3,1,6,1.2,9.1,0.7c1.9-0.3,3.6-0.9,5.2-1.9c0.6-0.4,1.3-0.7,1.7-1.5c0-0.7,0-1.5,0-2.3
		c0-1.9,0-3.8,0-5.6C369.9,465.3,392.7,460.5,389.4,444.2z"/>
</g>
</svg>
